<svg id="Layer_3" data-name="Layer 3" xmlns="http://www.w3.org/2000/svg" viewBox="0 0 512 512"><defs><style>.cls-1{fill:#003249;}.cls-2{fill:#f00c2e;}</style></defs><polygon class="cls-1" points="374.71 133.07 370.34 161.27 468.76 161.27 458.22 221.83 357.22 221.83 346.59 287.17 259.12 287.17 282.08 162.35 220.08 287.17 176.66 287.17 158.52 162.35 137.29 287.17 54.38 287.17 94.17 62.54 203.51 62.54 218.52 165.63 267.91 62.54 309.74 62.54 324.11 168.75 374.71 62.54 485.94 62.54 473.66 133.07 374.71 133.07"/><polygon class="cls-2" points="374.71 62.54 324.11 168.75 309.74 62.54 374.71 62.54"/><path class="cls-1" d="M440.47,277v-29.5h-7.8l-13.91,37.17h7.82l2.5-5.93h5.47v5.93H447.3l1.34-7.67Zm-5.92-3.58h-5.16l5.16-13.9Z"/><path class="cls-1" d="M422.82,257.16c.77-6-.41-9.5-5.38-9.67h-34V253h7L385,278.73l-10.94.2L380,247.49h-8l-7.65,37.17h26.72l5.47-31.7h7l-6.41,31.7h13.15c4.75,0,8.05-2.26,9.3-7.67Zm-6.72,2.35-2.64,13.9c-1.14,5.52-2.08,5.91-8.13,5.32L410.17,253C415.84,252.94,417.31,253.9,416.1,259.51Z"/><path class="cls-2" d="M440.09,319.88c.24-3.12,2.66-12.85-15.16-12.85s-19.68,9.49-19.68,14,4.61,10.78,15.16,12.5c3.78.55,5.38,1.21,5.55,4.06,0,2.31-3.14,3.83-5.79,3.76-2.38,0-6-1-6-5.16H401.58c.42,8.61,5.51,13,16.1,13,17.6,0,19.51-9.4,20.5-12.1h0l.53-3a.22.22,0,0,0,0-.1c.07-6.05-5.8-11.12-15.6-11.12-3-.05-5.45-1.67-5.45-4s2.55-3.41,4.92-3.43c4-.22,5.1,1.54,4.51,4.44ZM109.48,307l-19,36.05L97,307H80.59L69,330.89,66.22,307H50.86l-7.47,42.16H55.12l4.07-22.67,2,22.67h9.21l9.38-21.73-2.18,21.73h23.11l4.07-6.11h11.25v6.11h14.21L122.44,307ZM115,334.18H107.3L115,320.59ZM220.08,307l-8,42.16h14.19L232.93,307Zm161.83,0-20.63,38.23L367.61,307H354.1l-7.51,41.52c.94-13.75,1.18-19.68-5.47-19.68,11.29-1,13.44-20.63-2-21.84H314.93l-6.44,36.12L301,307H288.1l-18.74,35L275,307H262.33l-5.05,20.43S248,307,247.56,307H236.32l-7.5,42.16h12.53l3.4-21.09,10.42,21.09h24.62l4.33-7.19h10.66v7.19H321L324.18,334h6.1c3.32,0,2.81,2.22,2.81,7.58l0,7.58h40.11l3.28-7h12.57v7H402L394.39,307Zm-87.13,27h-8.2l5.61-13.12h2.59Zm39.32-8h-9.53l1.56-10h8C339.11,316.06,339.11,326.05,334.1,326.05Zm52.73,8h-8l5.78-13h2.19ZM165.64,309.16a15.68,15.68,0,0,0-4.07-2.13,19.19,19.19,0,0,0-12.37,0,26,26,0,0,0-13.07,9.73c-7.56,10.48-6.59,24.08,2.15,30.39a15.69,15.69,0,0,0,3.8,2,19.28,19.28,0,0,0,13,0,24,24,0,0,0,3.45-1.47l1.13,1.47,3.29,4.2,4.72-4.2,2.31-2.06-4.15-5.1a22.82,22.82,0,0,0,2-2.46C175.35,329.07,174.38,315.47,165.64,309.16Zm-5.24,21.91a18.8,18.8,0,0,1-1.25,2.76L155.26,329l-6.72,6,3.65,4.68a6.17,6.17,0,0,1-3.41-.17c-4.28-1.5-6-7.69-3.86-13.82s7.36-9.87,11.62-8.39S162.54,324.94,160.4,331.07Zm43.11-24c-4,23.4-4.83,33.48-12,33.39s-6.61-9.71,0-33.39H177.9c-3.15,23.75-10.55,41.57,10.32,42.16h2.5c19.67,0,21.23-13.77,25.29-42.16Z"/><path class="cls-1" d="M129.71,366.3H104.29L89.88,447h59.74l4.22-20.39H118.59Zm-66.31,18H97l4-18H40.36L26.06,447H52.62L57,417.32H84.72L88,399.15H60.13Zm259.26-18L307.78,447h26l14.65-80.66Zm89.11,2.23a33.82,33.82,0,0,0-3.54-2.23c-10.67-5.84-23.74-5.53-35.44,0a51.11,51.11,0,0,0-19.66,16.51c-14.79,20.56-12.56,47.49,5,60.15a33.22,33.22,0,0,0,7.34,4c8.51,3.4,18.21,3.27,27.36,0a50.54,50.54,0,0,0,23.94-18.28C431.59,408.12,429.35,381.2,411.77,368.53Zm-12.59,42.18c-4.19,11.93-13.91,19.37-21.77,16.61s-10.83-14.63-6.66-26.54,13.91-19.36,21.77-16.61S403.34,398.8,399.18,410.71Zm-175.5-42.18a33.82,33.82,0,0,0-3.54-2.23c-10.67-5.84-23.75-5.53-35.46,0A51.06,51.06,0,0,0,165,382.81c-14.81,20.56-12.56,47.49,5,60.15a33.22,33.22,0,0,0,7.34,4c8.52,3.4,18.21,3.27,27.36,0a50.54,50.54,0,0,0,23.94-18.28C243.5,408.12,241.24,381.2,223.68,368.53Zm-12.61,42.18c-4.17,11.93-13.89,19.37-21.75,16.61s-10.83-14.63-6.66-26.54,13.91-19.36,21.77-16.61S215.25,398.8,211.07,410.71ZM296,408.42c26.46-15,23.18-42.12-8.69-42.12h-41.9L231.94,447h25.79l4.68-29h10.77c7.54-.15,9.71,3.41,9.21,7.34L279.79,447h25.88c2.11-9.38-4.79,4.44,0-20C309.19,408.53,296,408.42,296,408.42Zm-16.17-8.32H265.38l2.53-16.51h13.4C293.85,383.59,290.1,400.12,279.79,400.1Z"/></svg>